<?xml version="1.0" encoding="utf-8"?>
<!-- Generator: Adobe Illustrator 19.0.0, SVG Export Plug-In . SVG Version: 6.00 Build 0)  -->
<svg version="1.1" id="Ebene_1" xmlns="http://www.w3.org/2000/svg" xmlns:xlink="http://www.w3.org/1999/xlink" x="0px" y="0px"
	 viewBox="0 0 1417.3 1417.3" style="enable-background:new 0 0 1417.3 1417.3;" xml:space="preserve">
<style type="text/css">
	.st0{display:none;fill:#FFFFFF;stroke:#000000;stroke-miterlimit:10;}
	.st1{fill-rule:evenodd;clip-rule:evenodd;fill:none;}
	.st2{fill-rule:evenodd;clip-rule:evenodd;}
</style>
<rect x="678.7" y="680.5" class="st0" width="56.3" height="56.3"/>
<path class="st1" d="M425.3,1066c-20.9,20.9-59.8,20.3-81.3-1.4c-21.8-21.9-21.3-58,1.3-80.9c23.7-24,60.5-22.7,84.6,3.1
	C449.2,1007.6,447.1,1044.2,425.3,1066z"/>
<path class="st2" d="M916.7,322.7c-57.8,18.8-105.2,80.8-100,141.1c1.6,18.4,11.7,56.9,6.5,54.8c-0.5,1.3-84.3,83.1-179.2,175.6
	l79.2,81c60.7-59.3,121.3-118.5,182.2-178c9.2,2.2,16,3.7,22.8,5.6c80.4,22.2,185.6-36.5,178.6-153.6c-1.5-25.2-9.2-49.3-23.7-69.5
	C1047.4,330.2,982.7,301.2,916.7,322.7z M1007.4,429.3c15.5,21,12.9,54.8-5.6,73.2c-19.7,19.6-53.6,21.4-75.1,3.9
	c-27-21.8-33.9-58.4-6.6-86C947.3,392.9,986.1,400.5,1007.4,429.3z"/>
<path class="st2" d="M569.2,767.1c-45.9,44.7-90.1,87.8-124.7,121.6c-102-29.4-154.6,14.7-181.5,57.8
	c-38.5,61.8-30.5,125.3,15.4,176.9c39.5,44.3,102.9,60.1,163.2,35.4c30.9-12.7,56.6-32.9,72.5-63.1c21.2-40.3,22.6-82.7,9.1-125.1
	c41.9-41,83.5-81.6,125.2-122.4L569.2,767.1z M425.3,1066c-20.9,20.9-59.8,20.3-81.3-1.4c-21.8-21.9-21.3-58,1.3-80.9
	c23.7-24,60.5-22.7,84.6,3.1C449.2,1007.6,447.1,1044.2,425.3,1066z"/>
<rect x="585.6" y="708.4" transform="matrix(0.7152 -0.699 0.699 0.7152 -348.7775 674.1095)" class="st2" width="134.2" height="113.2"/>
<path d="M1325.1,225.2l-70.5,15.4c-2.9,0.6-6.8-0.7-8.8-2.8l-62.4-61.2c-2.2-1.9-3.5-5.7-3-8.6l15.6-76l-140-53.2l-40,62.4
	c-1.6,2.4-5.2,4.3-8.1,4.1l-87.4,0.2c-2.9,0.2-6.6-1.6-8.2-4l-39.3-59.6l-139,60.5l14.4,66c0.6,2.9-0.7,6.7-2.9,8.6l-64.6,63.8
	c-1.9,2.2-5.8,3.5-8.6,2.9l-66-13.6l-58,139.6l55.2,35.4c2.4,1.5,4.2,5.2,4,8.1l-0.2,40.8l109.8-21c5.8-56.4,30.5-111.2,74.2-153.9
	c99-96.8,257.8-95,354.7,4.1c96.8,99,95,257.9-4,354.7c-46.8,45.7-106.9,69.2-167.4,71c2.7,57.5,5.8,115,5.8,115l37.9-4
	c2.9-0.4,6.5,1.2,8.1,3.6l33.6,50.9l139.7-57.4l-13.8-62.9c-0.6-2.8,0.7-6.7,2.8-8.6l66.3-68.9c1.9-2.2,5.7-3.6,8.5-3l65.7,13.5
	l57.6-138.7l-59.9-38.4c-2.4-1.5-4.3-5.2-4.1-8.1l-1.8-90.8c-0.3-2.9,1.5-6.5,3.9-8.1l56.8-37.4L1325.1,225.2z"/>
<path d="M343.3,670.1c-79.5,9.5-139.1,41.8-189.7,82.7c10.7,11.7,66.7,76.9,69.9,80.9c66.8-54.9,132.1-57.5,132.1-57.5
	S347.8,703.3,343.3,670.1z"/>
<path d="M105.6,803c-54.8,71.2-70.1,135.6-75.4,193.5c16.8-0.1,94.1,7,106.3,7.5c6.5-81.3,52.6-134.8,52.6-134.8
	S118.3,811.4,105.6,803z"/>
<path d="M31.4,1066.4c6.9-1.6,106.2-12.6,106.2-12.6s6.7,73.5,58.8,132.1c-6.3,5.5-71.9,61.1-81.8,70.2
	C66.5,1192.3,44.3,1145.6,31.4,1066.4z"/>
<path d="M231.9,1220.2c0,0-60.2,77.1-65.5,84.2c64,50.1,135.3,68.4,193.5,74c1.1-5.6,7.5-104.3,7.2-107.3
	C291.3,1269,231.9,1220.2,231.9,1220.2z"/>
<path d="M416.8,1270.1c0,0,70.5-4.5,131.8-59.1c8.1,8.3,70.2,79.9,70.2,79.9s-71.3,71-188.8,85.5
	C428.9,1364.5,416.8,1270.1,416.8,1270.1z"/>
<path d="M582.3,1174.8c51.1-65,51-135.1,51-135.1s87.2,5.3,106,6.5c-5.3,115.9-72.4,193.9-72.4,193.9S587.5,1178.8,582.3,1174.8z"/>
</svg>
