<svg id="Layer_1" data-name="Layer 1" xmlns="http://www.w3.org/2000/svg" xmlns:xlink="http://www.w3.org/1999/xlink" viewBox="0 0 1828.98 1029.53"><defs><style>.cls-1{fill:#fff;}.cls-1,.cls-4{stroke:#000;stroke-width:5px;}.cls-1,.cls-10,.cls-4,.cls-9{stroke-miterlimit:10;}.cls-2,.cls-3{font-size:54px;}.cls-11,.cls-2,.cls-3,.cls-93,.cls-94{font-family:OpenSans-CondensedBold, Open Sans Condensed;}.cls-11,.cls-2,.cls-3,.cls-6,.cls-93,.cls-94{font-weight:700;}.cls-3{letter-spacing:-0.02em;}.cls-4{font-size:100px;font-family:Bliss2-Medium, Bliss2 Medium;letter-spacing:-0.06em;}.cls-5{letter-spacing:0.02em;}.cls-12,.cls-33,.cls-6{font-size:41px;}.cls-6{font-family:OpenSans-Semibold, Open Sans;}.cls-7{letter-spacing:0.02em;}.cls-8{letter-spacing:-0.02em;}.cls-10,.cls-9{fill:none;stroke:#333;}.cls-9{stroke-width:20px;}.cls-10{stroke-width:15px;}.cls-11,.cls-93,.cls-94{font-size:50px;}.cls-11{letter-spacing:0.02em;}.cls-12,.cls-33{font-family:OpenSans, Open Sans;}.cls-13{letter-spacing:-0.02em;}.cls-14{letter-spacing:-0.02em;}.cls-15{letter-spacing:-0.04em;}.cls-16{letter-spacing:-0.01em;}.cls-17{letter-spacing:-0.08em;}.cls-18{letter-spacing:0.01em;}.cls-19{letter-spacing:-0.02em;}.cls-20{letter-spacing:-0.02em;}.cls-21{letter-spacing:0em;}.cls-22{letter-spacing:-0.01em;}.cls-23{letter-spacing:-0.02em;}.cls-24{letter-spacing:-0.02em;}.cls-25{letter-spacing:-0.02em;}.cls-26{letter-spacing:-0.01em;}.cls-27{letter-spacing:-0.02em;}.cls-28{letter-spacing:-0.01em;}.cls-29{letter-spacing:-0.01em;}.cls-30{letter-spacing:-0.01em;}.cls-31{letter-spacing:-0.02em;}.cls-32{letter-spacing:-0.01em;}.cls-33{letter-spacing:-0.02em;}.cls-34{letter-spacing:-0.02em;}.cls-35{letter-spacing:-0.02em;}.cls-36{letter-spacing:-0.03em;}.cls-37{letter-spacing:-0.02em;}.cls-38{letter-spacing:-0.03em;}.cls-39{letter-spacing:-0.03em;}.cls-40{letter-spacing:-0.03em;}.cls-41{letter-spacing:-0.03em;}.cls-42{letter-spacing:-0.02em;}.cls-43{letter-spacing:-0.02em;}.cls-44{letter-spacing:-0.02em;}.cls-45{letter-spacing:-0.02em;}.cls-46{letter-spacing:-0.03em;}.cls-47{letter-spacing:-0.02em;}.cls-48{letter-spacing:-0.01em;}.cls-49{letter-spacing:-0.03em;}.cls-50{letter-spacing:-0.02em;}.cls-51{letter-spacing:-0.02em;}.cls-52{letter-spacing:-0.01em;}.cls-53{letter-spacing:-0.04em;}.cls-54{letter-spacing:-0.02em;}.cls-55{letter-spacing:-0.02em;}.cls-56{letter-spacing:-0.02em;}.cls-57{letter-spacing:-0.02em;}.cls-58{letter-spacing:-0.03em;}.cls-59{letter-spacing:-0.02em;}.cls-60{letter-spacing:-0.02em;}.cls-61{letter-spacing:-0.01em;}.cls-62{letter-spacing:-0.04em;}.cls-63{letter-spacing:-0.04em;}.cls-64{letter-spacing:-0.02em;}.cls-65{letter-spacing:-0.01em;}.cls-66{letter-spacing:-0.02em;}.cls-67{letter-spacing:-0.01em;}.cls-68{letter-spacing:-0.02em;}.cls-69{letter-spacing:-0.02em;}.cls-70{letter-spacing:-0.02em;}.cls-71{letter-spacing:-0.01em;}.cls-72{letter-spacing:-0.02em;}.cls-73{letter-spacing:-0.02em;}.cls-74{letter-spacing:-0.01em;}.cls-75{letter-spacing:-0.02em;}.cls-76{letter-spacing:-0.02em;}.cls-77{letter-spacing:-0.02em;}.cls-78{letter-spacing:-0.01em;}.cls-79{letter-spacing:-0.02em;}.cls-80{letter-spacing:-0.01em;}.cls-81{letter-spacing:-0.02em;}.cls-82{letter-spacing:-0.02em;}.cls-83{letter-spacing:0em;}.cls-84{letter-spacing:-0.01em;}.cls-85{letter-spacing:0.01em;}.cls-86{letter-spacing:0.01em;}.cls-87{letter-spacing:-0.01em;}.cls-88{letter-spacing:-0.02em;}.cls-89{letter-spacing:0em;}.cls-90{letter-spacing:-0.02em;}.cls-91{letter-spacing:-0.01em;}.cls-92{letter-spacing:-0.01em;}.cls-93{letter-spacing:0.02em;}.cls-95{letter-spacing:-0.02em;}.cls-96{letter-spacing:0.47em;}.cls-97{letter-spacing:-0.02em;}.cls-98{letter-spacing:-0.02em;}.cls-99{letter-spacing:0em;}.cls-100{letter-spacing:-0.01em;}.cls-101{letter-spacing:-0.02em;}.cls-102{letter-spacing:-0.02em;}.cls-103{letter-spacing:-0.02em;}.cls-104{letter-spacing:-0.01em;}.cls-105{letter-spacing:-0.01em;}.cls-106{letter-spacing:0.02em;}.cls-107{letter-spacing:-0.01em;}.cls-108{letter-spacing:-0.02em;}.cls-109{letter-spacing:-0.01em;}.cls-110{letter-spacing:-0.01em;}.cls-111{letter-spacing:-0.01em;}.cls-112{letter-spacing:0.01em;}.cls-113{letter-spacing:0em;}.cls-114{letter-spacing:-0.01em;}.cls-115{letter-spacing:-0.01em;}.cls-116{letter-spacing:0em;}.cls-117{letter-spacing:-0.01em;}.cls-118{letter-spacing:0em;}.cls-119{letter-spacing:0.01em;}.cls-120{letter-spacing:-0.01em;}.cls-121{letter-spacing:0.03em;}.cls-122{letter-spacing:-0.01em;}.cls-123{letter-spacing:-0.02em;}.cls-124{letter-spacing:-0.02em;}.cls-125{letter-spacing:-0.04em;}.cls-126{letter-spacing:0em;}.cls-127{letter-spacing:0.01em;}.cls-128{letter-spacing:-0.02em;}.cls-129{letter-spacing:-0.02em;}.cls-130{letter-spacing:-0.01em;}.cls-131{letter-spacing:-0.02em;}.cls-132{letter-spacing:-0.01em;}.cls-133{letter-spacing:-0.02em;}.cls-134{letter-spacing:-0.03em;}.cls-135{letter-spacing:-0.02em;}.cls-136{letter-spacing:-0.01em;}.cls-137{letter-spacing:-0.02em;}.cls-138{letter-spacing:0.01em;}.cls-139{letter-spacing:-0.01em;}.cls-140{letter-spacing:0em;}.cls-141{letter-spacing:-0.02em;}.cls-142{letter-spacing:-0.02em;}.cls-143{letter-spacing:-0.01em;}.cls-144{letter-spacing:-0.02em;}.cls-145{letter-spacing:-0.04em;}.cls-146{letter-spacing:-0.03em;}.cls-147{letter-spacing:0em;}.cls-148{letter-spacing:-0.02em;}.cls-149{letter-spacing:-0.02em;}.cls-150{letter-spacing:-0.02em;}.cls-151{letter-spacing:-0.02em;}.cls-152{letter-spacing:-0.01em;}.cls-153{letter-spacing:-0.03em;}.cls-154{letter-spacing:0.02em;}.cls-155{letter-spacing:-0.02em;}.cls-156{letter-spacing:-0.01em;}.cls-157{letter-spacing:-0.01em;}.cls-158{letter-spacing:-0.05em;}</style></defs><title>fab101_project-overview</title><rect class="cls-1" x="639.4" y="322.6" width="551.16" height="431.54" rx="35" ry="35"/><rect class="cls-1" x="5.78" y="2.5" width="381.71" height="154.21" rx="18" ry="18"/><rect class="cls-1" x="484.47" y="2.5" width="381.71" height="154.21" rx="18" ry="18"/><rect class="cls-1" x="965.85" y="2.5" width="381.71" height="154.21" rx="18" ry="18"/><rect class="cls-1" x="1443.27" y="2.5" width="381.71" height="154.21" rx="18" ry="18"/><text class="cls-2" transform="translate(80.93 72.34)">Universität<tspan x="47.14" y="45">Siegen</tspan></text><text x="-45.02" y="-28.94"></text><text class="cls-2" transform="translate(613.47 72.34)">RWTH<tspan x="-14.98" y="45">Aachen</tspan></text><text x="-45.02" y="-28.94"></text><text class="cls-2" transform="translate(1041.01 72.34)">Universität<tspan x="33.45" y="45">Bremen</tspan></text><text x="-45.02" y="-28.94"></text><text class="cls-3" transform="translate(1530.09 69.08)">Folkwang <tspan x="-51.92" y="45">Universität d.K.</tspan></text><text x="-45.02" y="-28.94"></text><text class="cls-4" transform="translate(753.58 698.48)">F<tspan class="cls-5" x="43" y="0">AB101</tspan></text><image width="640" height="337" transform="translate(693.58 358.36) scale(0.69)" xlink:href="Fab101 K PNG II.png"/><text class="cls-6" transform="translate(552.35 257.53)">Digitalisierte<tspan class="cls-7" x="250.94" y="0"> </tspan><tspan x="262.42" y="0">Produktion/Fabrikatio</tspan><tspan class="cls-8" x="700.06" y="0">n</tspan><tspan x="66.81" y="46">und neue Technikparadigmen</tspan></text><path class="cls-9" d="M217.77,226.38c0,23.81-22.76,43.08,344.53,43.08" transform="translate(-45.02 -28.94)"/><path class="cls-9" d="M1703.48,223.25c0,25.07,22.44,45.35-339.65,45.35" transform="translate(-45.02 -28.94)"/><text class="cls-6" transform="translate(593.79 807.51)">Interdisziplinäre Hochschullehre<tspan x="18.47" y="50">auf Basis neuer Entwicklungen</tspan></text><line class="cls-10" x1="675.59" y1="162.17" x2="675.59" y2="211.73"/><text class="cls-11" transform="translate(11.87 363.32)">Fokuspunkte</text><text class="cls-12" transform="translate(31.3 442.97)"><tspan class="cls-13">M</tspan><tspan class="cls-14" x="36.23" y="0">a</tspan><tspan class="cls-15" x="58.39" y="0">k</tspan><tspan class="cls-16" x="78.34" y="0">e</tspan><tspan class="cls-17" x="100.77" y="0">r</tspan><tspan class="cls-18" x="114.38" y="0">-</tspan><tspan class="cls-19" x="127.9" y="0">K</tspan><tspan class="cls-20" x="152.17" y="0">u</tspan><tspan class="cls-21" x="176.57" y="0">l</tspan><tspan class="cls-22" x="186.75" y="0">t</tspan><tspan class="cls-23" x="200.96" y="0">u</tspan><tspan x="225.38" y="0">r &amp; </tspan><tspan class="cls-24" x="293.34" y="0">I</tspan><tspan class="cls-25" x="304.06" y="0">n</tspan><tspan class="cls-26" x="328.58" y="0">n</tspan><tspan class="cls-27" x="353.2" y="0">o</tspan><tspan class="cls-28" x="377.31" y="0">v</tspan><tspan class="cls-29" x="397.38" y="0">a</tspan><tspan class="cls-30" x="419.74" y="0">t</tspan><tspan class="cls-31" x="433.94" y="0">i</tspan><tspan class="cls-32" x="443.57" y="0">o</tspan><tspan x="467.74" y="0">n</tspan></text><text class="cls-33" transform="translate(31.3 546.12)">H<tspan class="cls-34" x="29.29" y="0">o</tspan><tspan class="cls-35" x="53.21" y="0">c</tspan><tspan class="cls-36" x="71.75" y="0">h</tspan><tspan class="cls-37" x="95.76" y="0">s</tspan><tspan class="cls-35" x="114.54" y="0">c</tspan><tspan class="cls-38" x="133.08" y="0">h</tspan><tspan class="cls-39" x="157.19" y="0">u</tspan><tspan class="cls-40" x="181.18" y="0">l</tspan><tspan class="cls-41" x="190.47" y="0">ü</tspan><tspan class="cls-42" x="214.48" y="0">b</tspan><tspan class="cls-43" x="238.78" y="0">e</tspan><tspan class="cls-44" x="260.8" y="0">r</tspan><tspan class="cls-45" x="276.9" y="0">g</tspan><tspan class="cls-46" x="298.59" y="0">r</tspan><tspan class="cls-47" x="314.12" y="0">e</tspan><tspan class="cls-48" x="336.12" y="0">i</tspan><tspan class="cls-49" x="345.91" y="0">f</tspan><tspan class="cls-43" x="358.72" y="0">e</tspan><tspan class="cls-50" x="380.74" y="0">n</tspan><tspan class="cls-51" x="405.02" y="0">d</tspan><tspan class="cls-52" x="429.12" y="0">e</tspan><tspan class="cls-53"><tspan x="0" y="40">K</tspan><tspan class="cls-54" x="23.52" y="40">o</tspan><tspan class="cls-55" x="47.44" y="40">o</tspan><tspan class="cls-42" x="71.2" y="40">p</tspan><tspan class="cls-56" x="95.5" y="40">e</tspan><tspan class="cls-40" x="117.52" y="40">r</tspan><tspan class="cls-34" x="133.17" y="40">a</tspan><tspan class="cls-57" x="155.13" y="40">t</tspan><tspan class="cls-58" x="168.91" y="40">i</tspan><tspan class="cls-59" x="178.14" y="40">o</tspan><tspan class="cls-60" x="201.9" y="40">n</tspan><tspan class="cls-43" x="226.11" y="40">e</tspan><tspan class="cls-61" x="248.13" y="40">n &amp; </tspan><tspan class="cls-62" x="322.88" y="40">K</tspan><tspan class="cls-59" x="346.4" y="40">on</tspan><tspan class="cls-63" x="394.32" y="40">z</tspan><tspan class="cls-43" x="411.88" y="40">ep</tspan><tspan class="cls-46" x="458.04" y="40">t</tspan><tspan class="cls-61" x="471.31" y="40">e</tspan></tspan></text><text class="cls-12" transform="translate(31.3 667.58)"><tspan class="cls-64">I</tspan><tspan class="cls-65" x="10.72" y="0">n</tspan><tspan class="cls-66" x="35.37" y="0">t</tspan><tspan class="cls-67" x="49.05" y="0">e</tspan><tspan class="cls-68" x="71.48" y="0">r</tspan><tspan class="cls-69" x="87.54" y="0">d</tspan><tspan class="cls-70" x="111.94" y="0">i</tspan><tspan class="cls-71" x="121.51" y="0">s</tspan><tspan class="cls-72" x="140.86" y="0">z</tspan><tspan class="cls-73" x="159.35" y="0">i</tspan><tspan class="cls-74" x="168.97" y="0">p</tspan><tspan class="cls-75" x="193.57" y="0">li</tspan><tspan class="cls-76" x="212.81" y="0">n</tspan><tspan class="cls-27" x="237.26" y="0">ä</tspan><tspan class="cls-77" x="259.42" y="0">r</tspan><tspan x="275.36" y="0">e </tspan><tspan class="cls-78" x="309.01" y="0">B</tspan><tspan class="cls-79" x="335.13" y="0">i</tspan><tspan class="cls-80" x="344.76" y="0">l</tspan><tspan class="cls-68" x="354.62" y="0">d</tspan><tspan class="cls-81" x="379.07" y="0">u</tspan><tspan class="cls-82" x="403.49" y="0">n</tspan><tspan class="cls-83" x="428" y="0">g</tspan><tspan class="cls-84" x="450.44" y="0">s</tspan><tspan x="469.75" y="0">-</tspan><tspan class="cls-85" x="0" y="40">s</tspan><tspan class="cls-86" x="19.99" y="40">t</tspan><tspan class="cls-14" x="34.78" y="40">a</tspan><tspan class="cls-87" x="56.93" y="40">n</tspan><tspan class="cls-88" x="81.62" y="40">d</tspan><tspan class="cls-27" x="105.91" y="40">a</tspan><tspan class="cls-68" x="128.06" y="40">r</tspan><tspan class="cls-44" x="144.13" y="40">d</tspan><tspan x="168.61" y="40">s </tspan><tspan class="cls-89" x="198.82" y="40">f</tspan><tspan class="cls-81" x="212.74" y="40">ü</tspan><tspan x="237.16" y="40">r </tspan><tspan class="cls-90" x="264.54" y="40">S</tspan><tspan class="cls-22" x="286.13" y="40">t</tspan><tspan class="cls-26" x="300.34" y="40">u</tspan><tspan class="cls-69" x="324.96" y="40">d</tspan><tspan class="cls-31" x="349.36" y="40">i</tspan><tspan class="cls-16" x="359" y="40">e</tspan><tspan class="cls-77" x="381.42" y="40">r</tspan><tspan class="cls-16" x="397.36" y="40">e</tspan><tspan class="cls-91" x="419.79" y="40">n</tspan><tspan class="cls-92" x="444.48" y="40">d</tspan><tspan x="468.99" y="40">e</tspan></text><text class="cls-93" transform="translate(1246.76 372.11) scale(0.96 1)">Ziele</text><line class="cls-10" x1="1185.98" y1="162.17" x2="1185.98" y2="211.73"/><ellipse cx="1276.42" cy="428.13" rx="11" ry="11.52"/><ellipse cx="1276.67" cy="644.39" rx="11" ry="11.52"/><ellipse cx="1275.45" cy="534.6" rx="11" ry="11.52"/><circle cx="11.52" cy="655.43" r="11.52"/><circle cx="11.52" cy="532.6" r="11.52"/><circle cx="11.52" cy="430.81" r="11.52"/><path class="cls-9" d="M219.3,896.67c0-25.07-24-45.35,362.65-45.35" transform="translate(-45.02 -28.94)"/><path class="cls-9" d="M1706.75,896.67c0-25.07,23.86-45.35-361.17-45.35" transform="translate(-45.02 -28.94)"/><rect class="cls-1" x="9.75" y="912.06" width="373.77" height="114.97" rx="18" ry="18"/><text class="cls-94" transform="translate(41.96 984.35)">Infrastrukturen</text><rect class="cls-1" x="469.41" y="912.06" width="325.29" height="114.97" rx="18" ry="18"/><text class="cls-94" transform="translate(524.89 984.35)"><tspan class="cls-95">W</tspan><tspan x="38.84" y="0">erkzeuge</tspan></text><rect class="cls-1" x="870.9" y="912.06" width="415.72" height="114.97" rx="18" ry="18"/><text class="cls-94" transform="translate(964.16 984.35)">Kooperation</text><rect class="cls-1" x="1347.56" y="912.06" width="456.68" height="114.97" rx="18" ry="18"/><text class="cls-94" transform="translate(1349.12 984.35)"><tspan class="cls-96">	</tspan><tspan x="36" y="0">Bildung &amp; Handlung</tspan></text><text class="cls-12" transform="translate(1297.63 658.04)"><tspan class="cls-97">P</tspan><tspan class="cls-98" x="23.83" y="0">r</tspan><tspan class="cls-99" x="39.89" y="0">a</tspan><tspan class="cls-100" x="62.53" y="0">x</tspan><tspan class="cls-101" x="83.74" y="0">i</tspan><tspan class="cls-102" x="93.31" y="0">s</tspan><tspan class="cls-76" x="112.14" y="0">n</tspan><tspan class="cls-103" x="136.6" y="0">ä</tspan><tspan class="cls-104" x="158.75" y="0">h</tspan><tspan x="183.37" y="0">e </tspan><tspan class="cls-81" x="217.02" y="0">u</tspan><tspan class="cls-91" x="241.44" y="0">n</tspan><tspan x="266.12" y="0">d </tspan><tspan class="cls-105" x="301.9" y="0">p</tspan><tspan class="cls-98" x="326.46" y="0">r</tspan><tspan class="cls-14" x="342.52" y="0">a</tspan><tspan class="cls-106" x="364.67" y="0">k</tspan><tspan class="cls-107" x="387.2" y="0">t</tspan><tspan class="cls-108" x="401.39" y="0">i</tspan><tspan class="cls-109" x="410.97" y="0">s</tspan><tspan class="cls-110" x="430.16" y="0">c</tspan><tspan class="cls-111" x="449.12" y="0">h</tspan><tspan x="473.74" y="0">e </tspan><tspan class="cls-112" x="0" y="40">A</tspan><tspan class="cls-113" x="26.19" y="40">r</tspan><tspan class="cls-114" x="42.79" y="40">b</tspan><tspan class="cls-115" x="67.51" y="40">e</tspan><tspan class="cls-116" x="89.92" y="40">i</tspan><tspan x="100.1" y="40">t </tspan><tspan class="cls-117" x="125.22" y="40">b</tspan><tspan class="cls-115" x="149.94" y="40">e</tspan><tspan x="172.35" y="40">i </tspan><tspan class="cls-104" x="193.37" y="40">h</tspan><tspan class="cls-32" x="217.99" y="40">o</tspan><tspan class="cls-104" x="242.16" y="40">h</tspan><tspan class="cls-16" x="266.78" y="40">e</tspan><tspan x="289.21" y="40">r </tspan><tspan class="cls-118" x="316.59" y="40">w</tspan><tspan class="cls-108" x="348.42" y="40">i</tspan><tspan class="cls-71" x="358" y="40">s</tspan><tspan class="cls-109" x="377.34" y="40">s</tspan><tspan class="cls-16" x="396.53" y="40">e</tspan><tspan class="cls-119" x="418.96" y="40">n</tspan><tspan x="444.35" y="40">-</tspan><tspan class="cls-109" x="0" y="80">s</tspan><tspan class="cls-110" x="19.19" y="80">c</tspan><tspan class="cls-76" x="38.15" y="80">h</tspan><tspan class="cls-120" x="62.61" y="80">a</tspan><tspan class="cls-121" x="85" y="80">f</tspan><tspan class="cls-122" x="100.31" y="80">t</tspan><tspan class="cls-123" x="114.5" y="80">l</tspan><tspan class="cls-124" x="124.12" y="80">i</tspan><tspan class="cls-110" x="133.83" y="80">c</tspan><tspan class="cls-111" x="152.79" y="80">h</tspan><tspan class="cls-16" x="177.41" y="80">e</tspan><tspan x="199.84" y="80">r </tspan><tspan class="cls-125" x="227.22" y="80">V</tspan><tspan class="cls-14" x="249.87" y="80">a</tspan><tspan class="cls-75" x="272.02" y="80">l</tspan><tspan class="cls-82" x="281.64" y="80">i</tspan><tspan class="cls-69" x="291.36" y="80">d</tspan><tspan class="cls-126" x="315.76" y="80">i</tspan><tspan class="cls-127" x="325.93" y="80">t</tspan><tspan class="cls-29" x="340.72" y="80">ä</tspan><tspan x="363.09" y="80">t</tspan></text><text class="cls-12" transform="translate(1297.34 551.18)"><tspan class="cls-128">E</tspan><tspan class="cls-129" x="21.78" y="0">m</tspan><tspan class="cls-130" x="59.26" y="0">p</tspan><tspan class="cls-131" x="83.83" y="0">f</tspan><tspan class="cls-132" x="97.05" y="0">e</tspan><tspan class="cls-133" x="119.48" y="0">h</tspan><tspan class="cls-98" x="144" y="0">l</tspan><tspan class="cls-81" x="153.7" y="0">u</tspan><tspan class="cls-82" x="178.12" y="0">n</tspan><tspan class="cls-134" x="202.62" y="0">g</tspan><tspan class="cls-16" x="223.97" y="0">e</tspan><tspan x="246.4" y="0">n </tspan><tspan class="cls-89" x="282.21" y="0">f</tspan><tspan class="cls-81" x="296.13" y="0">ü</tspan><tspan x="320.55" y="0">r </tspan><tspan class="cls-135" x="347.93" y="0">P</tspan><tspan class="cls-136" x="371.61" y="0">o</tspan><tspan class="cls-123" x="395.82" y="0">l</tspan><tspan class="cls-116" x="405.44" y="0">i</tspan><tspan class="cls-107" x="415.61" y="0">t</tspan><tspan class="cls-137" x="429.8" y="0">i</tspan><tspan class="cls-138" x="439.42" y="0">k</tspan><tspan x="461.55" y="0">, </tspan><tspan class="cls-139" x="0" y="40">H</tspan><tspan class="cls-29" x="29.7" y="40">o</tspan><tspan class="cls-110" x="54.02" y="40">c</tspan><tspan class="cls-75" x="72.98" y="40">h</tspan><tspan class="cls-109" x="97.4" y="40">s</tspan><tspan class="cls-110" x="116.59" y="40">c</tspan><tspan class="cls-103" x="135.54" y="40">h</tspan><tspan class="cls-20" x="160.06" y="40">u</tspan><tspan class="cls-132" x="184.46" y="40">le</tspan><tspan x="216.69" y="40">n &amp; </tspan><tspan class="cls-84" x="293.08" y="40">G</tspan><tspan class="cls-103" x="322.68" y="40">ov</tspan><tspan class="cls-16" x="366.68" y="40">e</tspan><tspan class="cls-140" x="389.11" y="40">r</tspan><tspan class="cls-141" x="405.71" y="40">n</tspan><tspan class="cls-14" x="430.17" y="40">a</tspan><tspan class="cls-104" x="452.33" y="40">n</tspan><tspan class="cls-142" x="476.95" y="40">c</tspan><tspan x="495.52" y="40">e</tspan></text><text class="cls-12" transform="translate(1298.63 440.41)"><tspan class="cls-143">L</tspan><tspan class="cls-16" x="20.68" y="0">e</tspan><tspan class="cls-144" x="43.11" y="0">h</tspan><tspan class="cls-113" x="67.62" y="0">r</tspan><tspan class="cls-145" x="84.22" y="0">k</tspan><tspan class="cls-32" x="104.15" y="0">on</tspan><tspan class="cls-146" x="152.89" y="0">z</tspan><tspan class="cls-16" x="170.87" y="0">ep</tspan><tspan class="cls-66" x="217.85" y="0">t</tspan><tspan class="cls-72" x="231.52" y="0">e</tspan><tspan x="253.84" y="0">, </tspan><tspan class="cls-147" x="274.54" y="0">-</tspan><tspan class="cls-148" x="287.85" y="0">m</tspan><tspan class="cls-29" x="325.28" y="0">a</tspan><tspan class="cls-149" x="347.64" y="0">t</tspan><tspan class="cls-16" x="361.32" y="0">e</tspan><tspan class="cls-113" x="383.75" y="0">r</tspan><tspan class="cls-150" x="400.35" y="0">i</tspan><tspan class="cls-103" x="409.88" y="0">a</tspan><tspan class="cls-75" x="432.03" y="0">l</tspan><tspan class="cls-151" x="441.65" y="0">i</tspan><tspan class="cls-132" x="451.29" y="0">e</tspan><tspan x="473.72" y="0">n </tspan><tspan class="cls-81" x="0" y="40">u</tspan><tspan class="cls-91" x="24.42" y="40">n</tspan><tspan x="49.1" y="40">d </tspan><tspan class="cls-152" x="84.88" y="40">-</tspan><tspan class="cls-153" x="97.62" y="40">W</tspan><tspan class="cls-132" x="134.2" y="40">e</tspan><tspan class="cls-113" x="156.63" y="40">r</tspan><tspan class="cls-154" x="173.23" y="40">k</tspan><tspan class="cls-146" x="195.66" y="40">z</tspan><tspan class="cls-155" x="213.63" y="40">e</tspan><tspan class="cls-98" x="236.02" y="40">u</tspan><tspan class="cls-134" x="260.51" y="40">g</tspan><tspan x="281.86" y="40">e </tspan><tspan class="cls-110" x="315.51" y="40">(</tspan><tspan class="cls-156" x="327.08" y="40">D</tspan><tspan class="cls-16" x="356.53" y="40">e</tspan><tspan class="cls-139" x="378.96" y="40">m</tspan><tspan class="cls-157" x="416.54" y="40">o</tspan><tspan class="cls-158" x="440.72" y="40">s</tspan><tspan x="458.39" y="40">)</tspan></text></svg>